# xmcd CD database file
#
# Track frame offsets:
#	180
#	11865
#	23132
#	34524
#	45202
#	55675
#	66133
#	76220
#	90116
#	101170
#
# Disc length: 1523 seconds
#
# Revision: 0
# Processed by: cddbd v1.5.2PL0 Copyright (c) Steve Scherf et al.
# Submitted via: CDex 1.70beta2
#
DISCID=6705f10a
DTITLE=Pasty Cline - Country Queen
DYEAR=2004
DGENRE=Country
TTITLE0=Walking After Midnight
TTITLE1=Hungry for Love
TTITLE2=Crazy Dreams
TTITLE3=Honky Tonk Merry Go Round
TTITLE4=Lovesick Blues
TTITLE5=I Love You Honey
TTITLE6=Three Cigarettes In An Ashtray
TTITLE7=A Church, A Coutroom, And Then Goodbye
TTITLE8=There He Goes
TTITLE9=Life's Railway to Heaven
EXTD=YEAR: 2004
EXTT0=
EXTT1=
EXTT2=
EXTT3=
EXTT4=
EXTT5=
EXTT6=
EXTT7=
EXTT8=
EXTT9=
PLAYORDER=
